<svg width="73" height="96" viewBox="0 0 73 96" fill="none" xmlns="http://www.w3.org/2000/svg">
<path d="M2.736 70C2.472 70 2.25 69.91 2.07 69.73C1.89 69.55 1.8 69.328 1.8 69.064V56.878C1.8 56.602 1.89 56.38 2.07 56.212C2.25 56.032 2.472 55.942 2.736 55.942C3.012 55.942 3.234 56.032 3.402 56.212C3.582 56.38 3.672 56.602 3.672 56.878V62.044H12.024V56.878C12.024 56.602 12.114 56.38 12.294 56.212C12.474 56.032 12.696 55.942 12.96 55.942C13.236 55.942 13.458 56.032 13.626 56.212C13.794 56.38 13.878 56.602 13.878 56.878V69.064C13.878 69.328 13.794 69.55 13.626 69.73C13.458 69.91 13.236 70 12.96 70C12.696 70 12.474 69.91 12.294 69.73C12.114 69.55 12.024 69.328 12.024 69.064V63.7H3.672V69.064C3.672 69.328 3.582 69.55 3.402 69.73C3.234 69.91 3.012 70 2.736 70ZM21.4037 70.072C20.5277 70.072 19.7417 69.856 19.0457 69.424C18.3497 68.98 17.7977 68.386 17.3897 67.642C16.9937 66.886 16.7957 66.034 16.7957 65.086C16.7957 64.138 17.0117 63.286 17.4437 62.53C17.8877 61.774 18.4817 61.18 19.2257 60.748C19.9817 60.304 20.8277 60.082 21.7637 60.082C22.6997 60.082 23.5397 60.304 24.2837 60.748C25.0277 61.18 25.6157 61.774 26.0477 62.53C26.4917 63.286 26.7137 64.138 26.7137 65.086H26.0117C26.0117 66.034 25.8077 66.886 25.3997 67.642C25.0037 68.386 24.4577 68.98 23.7617 69.424C23.0657 69.856 22.2797 70.072 21.4037 70.072ZM21.7637 68.452C22.3757 68.452 22.9217 68.308 23.4017 68.02C23.8817 67.72 24.2597 67.318 24.5357 66.814C24.8117 66.298 24.9497 65.722 24.9497 65.086C24.9497 64.438 24.8117 63.862 24.5357 63.358C24.2597 62.842 23.8817 62.44 23.4017 62.152C22.9217 61.852 22.3757 61.702 21.7637 61.702C21.1637 61.702 20.6177 61.852 20.1257 62.152C19.6457 62.44 19.2617 62.842 18.9737 63.358C18.6977 63.862 18.5597 64.438 18.5597 65.086C18.5597 65.722 18.6977 66.298 18.9737 66.814C19.2617 67.318 19.6457 67.72 20.1257 68.02C20.6177 68.308 21.1637 68.452 21.7637 68.452ZM25.7957 70.018C25.5317 70.018 25.3097 69.934 25.1297 69.766C24.9617 69.586 24.8777 69.364 24.8777 69.1V66.346L25.2197 64.438L26.7137 65.086V69.1C26.7137 69.364 26.6237 69.586 26.4437 69.766C26.2757 69.934 26.0597 70.018 25.7957 70.018ZM30.3642 74.212C30.1002 74.212 29.8782 74.122 29.6982 73.942C29.5302 73.774 29.4462 73.558 29.4462 73.294V65.086C29.4582 64.138 29.6802 63.286 30.1122 62.53C30.5442 61.774 31.1322 61.18 31.8762 60.748C32.6202 60.304 33.4602 60.082 34.3962 60.082C35.3442 60.082 36.1902 60.304 36.9342 60.748C37.6782 61.18 38.2662 61.774 38.6982 62.53C39.1422 63.286 39.3642 64.138 39.3642 65.086C39.3642 66.034 39.1602 66.886 38.7522 67.642C38.3562 68.386 37.8102 68.98 37.1142 69.424C36.4182 69.856 35.6322 70.072 34.7562 70.072C34.0482 70.072 33.3942 69.928 32.7942 69.64C32.2062 69.34 31.7022 68.938 31.2822 68.434V73.294C31.2822 73.558 31.1982 73.774 31.0302 73.942C30.8622 74.122 30.6402 74.212 30.3642 74.212ZM34.3962 68.452C35.0082 68.452 35.5542 68.308 36.0342 68.02C36.5142 67.72 36.8922 67.318 37.1682 66.814C37.4562 66.298 37.6002 65.722 37.6002 65.086C37.6002 64.438 37.4562 63.862 37.1682 63.358C36.8922 62.842 36.5142 62.44 36.0342 62.152C35.5542 61.852 35.0082 61.702 34.3962 61.702C33.7962 61.702 33.2502 61.852 32.7582 62.152C32.2782 62.44 31.9002 62.842 31.6242 63.358C31.3482 63.862 31.2102 64.438 31.2102 65.086C31.2102 65.722 31.3482 66.298 31.6242 66.814C31.9002 67.318 32.2782 67.72 32.7582 68.02C33.2502 68.308 33.7962 68.452 34.3962 68.452ZM43.0204 74.212C42.7564 74.212 42.5344 74.122 42.3544 73.942C42.1864 73.774 42.1024 73.558 42.1024 73.294V65.086C42.1144 64.138 42.3364 63.286 42.7684 62.53C43.2004 61.774 43.7884 61.18 44.5324 60.748C45.2764 60.304 46.1164 60.082 47.0524 60.082C48.0004 60.082 48.8464 60.304 49.5904 60.748C50.3344 61.18 50.9224 61.774 51.3544 62.53C51.7984 63.286 52.0204 64.138 52.0204 65.086C52.0204 66.034 51.8164 66.886 51.4084 67.642C51.0124 68.386 50.4664 68.98 49.7704 69.424C49.0744 69.856 48.2884 70.072 47.4124 70.072C46.7044 70.072 46.0504 69.928 45.4504 69.64C44.8624 69.34 44.3584 68.938 43.9384 68.434V73.294C43.9384 73.558 43.8544 73.774 43.6864 73.942C43.5184 74.122 43.2964 74.212 43.0204 74.212ZM47.0524 68.452C47.6644 68.452 48.2104 68.308 48.6904 68.02C49.1704 67.72 49.5484 67.318 49.8244 66.814C50.1124 66.298 50.2564 65.722 50.2564 65.086C50.2564 64.438 50.1124 63.862 49.8244 63.358C49.5484 62.842 49.1704 62.44 48.6904 62.152C48.2104 61.852 47.6644 61.702 47.0524 61.702C46.4524 61.702 45.9064 61.852 45.4144 62.152C44.9344 62.44 44.5564 62.842 44.2804 63.358C44.0044 63.862 43.8664 64.438 43.8664 65.086C43.8664 65.722 44.0044 66.298 44.2804 66.814C44.5564 67.318 44.9344 67.72 45.4144 68.02C45.9064 68.308 46.4524 68.452 47.0524 68.452ZM55.9778 74.32C55.8578 74.32 55.7138 74.284 55.5458 74.212C55.0178 73.972 54.8738 73.594 55.1138 73.078L60.6038 60.676C60.8438 60.172 61.2218 60.028 61.7378 60.244C62.2778 60.472 62.4278 60.85 62.1878 61.378L56.6798 73.762C56.5358 74.134 56.3018 74.32 55.9778 74.32ZM58.1018 69.604C57.8738 69.7 57.6578 69.712 57.4538 69.64C57.2618 69.556 57.1058 69.4 56.9858 69.172L52.8638 61.342C52.7438 61.114 52.7258 60.898 52.8098 60.694C52.9058 60.478 53.0678 60.322 53.2958 60.226C53.5238 60.13 53.7398 60.124 53.9438 60.208C54.1478 60.28 54.3038 60.43 54.4118 60.658L58.3538 68.488C58.4738 68.716 58.5158 68.938 58.4798 69.154C58.4558 69.358 58.3298 69.508 58.1018 69.604ZM2.538 88.418C2.274 88.418 2.052 88.334 1.872 88.166C1.704 87.986 1.62 87.764 1.62 87.5V78.86C1.62 78.584 1.704 78.362 1.872 78.194C2.052 78.026 2.274 77.942 2.538 77.942C2.814 77.942 3.036 78.026 3.204 78.194C3.372 78.362 3.456 78.584 3.456 78.86V87.5C3.456 87.764 3.372 87.986 3.204 88.166C3.036 88.334 2.814 88.418 2.538 88.418ZM9.936 92.018C9.672 92.018 9.45 91.934 9.27 91.766C9.102 91.586 9.018 91.364 9.018 91.1V86.672C9.018 85.988 8.892 85.43 8.64 84.998C8.388 84.566 8.046 84.248 7.614 84.044C7.194 83.828 6.708 83.72 6.156 83.72C5.652 83.72 5.196 83.822 4.788 84.026C4.38 84.23 4.056 84.506 3.816 84.854C3.576 85.19 3.456 85.58 3.456 86.024H2.322C2.322 85.268 2.502 84.596 2.862 84.008C3.234 83.408 3.738 82.934 4.374 82.586C5.01 82.238 5.724 82.064 6.516 82.064C7.344 82.064 8.082 82.244 8.73 82.604C9.39 82.952 9.906 83.468 10.278 84.152C10.662 84.836 10.854 85.676 10.854 86.672V91.1C10.854 91.364 10.764 91.586 10.584 91.766C10.416 91.934 10.2 92.018 9.936 92.018ZM2.538 92.018C2.274 92.018 2.052 91.934 1.872 91.766C1.704 91.586 1.62 91.364 1.62 91.1V83.072C1.62 82.796 1.704 82.574 1.872 82.406C2.052 82.238 2.274 82.154 2.538 82.154C2.814 82.154 3.036 82.238 3.204 82.406C3.372 82.574 3.456 82.796 3.456 83.072V91.1C3.456 91.364 3.372 91.586 3.204 91.766C3.036 91.934 2.814 92.018 2.538 92.018ZM18.0111 92.072C17.1351 92.072 16.3491 91.856 15.6531 91.424C14.9571 90.98 14.4051 90.386 13.9971 89.642C13.6011 88.886 13.4031 88.034 13.4031 87.086C13.4031 86.138 13.6191 85.286 14.0511 84.53C14.4951 83.774 15.0891 83.18 15.8331 82.748C16.5891 82.304 17.4351 82.082 18.3711 82.082C19.3071 82.082 20.1471 82.304 20.8911 82.748C21.6351 83.18 22.2231 83.774 22.6551 84.53C23.0991 85.286 23.3211 86.138 23.3211 87.086H22.6191C22.6191 88.034 22.4151 88.886 22.0071 89.642C21.6111 90.386 21.0651 90.98 20.3691 91.424C19.6731 91.856 18.8871 92.072 18.0111 92.072ZM18.3711 90.452C18.9831 90.452 19.5291 90.308 20.0091 90.02C20.4891 89.72 20.8671 89.318 21.1431 88.814C21.4191 88.298 21.5571 87.722 21.5571 87.086C21.5571 86.438 21.4191 85.862 21.1431 85.358C20.8671 84.842 20.4891 84.44 20.0091 84.152C19.5291 83.852 18.9831 83.702 18.3711 83.702C17.7711 83.702 17.2251 83.852 16.7331 84.152C16.2531 84.44 15.8691 84.842 15.5811 85.358C15.3051 85.862 15.1671 86.438 15.1671 87.086C15.1671 87.722 15.3051 88.298 15.5811 88.814C15.8691 89.318 16.2531 89.72 16.7331 90.02C17.2251 90.308 17.7711 90.452 18.3711 90.452ZM22.4031 92.018C22.1391 92.018 21.9171 91.934 21.7371 91.766C21.5691 91.586 21.4851 91.364 21.4851 91.1V88.346L21.8271 86.438L23.3211 87.086V91.1C23.3211 91.364 23.2311 91.586 23.0511 91.766C22.8831 91.934 22.6671 92.018 22.4031 92.018ZM31.0036 92.072C30.0676 92.072 29.2276 91.856 28.4836 91.424C27.7396 90.98 27.1516 90.38 26.7196 89.624C26.2876 88.868 26.0656 88.016 26.0536 87.068V78.86C26.0536 78.584 26.1376 78.362 26.3056 78.194C26.4856 78.026 26.7076 77.942 26.9716 77.942C27.2476 77.942 27.4696 78.026 27.6376 78.194C27.8056 78.362 27.8896 78.584 27.8896 78.86V83.72C28.3096 83.216 28.8136 82.82 29.4016 82.532C30.0016 82.232 30.6556 82.082 31.3636 82.082C32.2396 82.082 33.0256 82.304 33.7216 82.748C34.4176 83.18 34.9636 83.774 35.3596 84.53C35.7676 85.274 35.9716 86.12 35.9716 87.068C35.9716 88.016 35.7496 88.868 35.3056 89.624C34.8736 90.38 34.2856 90.98 33.5416 91.424C32.7976 91.856 31.9516 92.072 31.0036 92.072ZM31.0036 90.452C31.6156 90.452 32.1616 90.308 32.6416 90.02C33.1216 89.72 33.4996 89.312 33.7756 88.796C34.0636 88.28 34.2076 87.704 34.2076 87.068C34.2076 86.42 34.0636 85.844 33.7756 85.34C33.4996 84.836 33.1216 84.44 32.6416 84.152C32.1616 83.852 31.6156 83.702 31.0036 83.702C30.4036 83.702 29.8576 83.852 29.3656 84.152C28.8856 84.44 28.5076 84.836 28.2316 85.34C27.9556 85.844 27.8176 86.42 27.8176 87.068C27.8176 87.704 27.9556 88.28 28.2316 88.796C28.5076 89.312 28.8856 89.72 29.3656 90.02C29.8576 90.308 30.4036 90.452 31.0036 90.452ZM43.6598 92.072C42.7238 92.072 41.8838 91.856 41.1398 91.424C40.3958 90.98 39.8078 90.38 39.3758 89.624C38.9438 88.868 38.7218 88.016 38.7098 87.068V78.86C38.7098 78.584 38.7938 78.362 38.9618 78.194C39.1418 78.026 39.3638 77.942 39.6278 77.942C39.9038 77.942 40.1258 78.026 40.2938 78.194C40.4618 78.362 40.5458 78.584 40.5458 78.86V83.72C40.9658 83.216 41.4698 82.82 42.0578 82.532C42.6578 82.232 43.3118 82.082 44.0198 82.082C44.8958 82.082 45.6818 82.304 46.3778 82.748C47.0738 83.18 47.6198 83.774 48.0158 84.53C48.4238 85.274 48.6278 86.12 48.6278 87.068C48.6278 88.016 48.4058 88.868 47.9618 89.624C47.5298 90.38 46.9418 90.98 46.1978 91.424C45.4538 91.856 44.6078 92.072 43.6598 92.072ZM43.6598 90.452C44.2718 90.452 44.8178 90.308 45.2978 90.02C45.7778 89.72 46.1558 89.312 46.4318 88.796C46.7198 88.28 46.8638 87.704 46.8638 87.068C46.8638 86.42 46.7198 85.844 46.4318 85.34C46.1558 84.836 45.7778 84.44 45.2978 84.152C44.8178 83.852 44.2718 83.702 43.6598 83.702C43.0598 83.702 42.5138 83.852 42.0218 84.152C41.5418 84.44 41.1638 84.836 40.8878 85.34C40.6118 85.844 40.4738 86.42 40.4738 87.068C40.4738 87.704 40.6118 88.28 40.8878 88.796C41.1638 89.312 41.5418 89.72 42.0218 90.02C42.5138 90.308 43.0598 90.452 43.6598 90.452ZM52.4641 92C52.2001 92 51.9781 91.916 51.7981 91.748C51.6301 91.568 51.5461 91.346 51.5461 91.082V83.072C51.5461 82.796 51.6301 82.574 51.7981 82.406C51.9781 82.238 52.2001 82.154 52.4641 82.154C52.7401 82.154 52.9621 82.238 53.1301 82.406C53.2981 82.574 53.3821 82.796 53.3821 83.072V91.082C53.3821 91.346 53.2981 91.568 53.1301 91.748C52.9621 91.916 52.7401 92 52.4641 92ZM52.4641 80.552C52.1401 80.552 51.8581 80.438 51.6181 80.21C51.3901 79.97 51.2761 79.688 51.2761 79.364C51.2761 79.04 51.3901 78.764 51.6181 78.536C51.8581 78.296 52.1401 78.176 52.4641 78.176C52.7881 78.176 53.0641 78.296 53.2921 78.536C53.5321 78.764 53.6521 79.04 53.6521 79.364C53.6521 79.688 53.5321 79.97 53.2921 80.21C53.0641 80.438 52.7881 80.552 52.4641 80.552ZM60.3797 92C59.7797 92 59.2397 91.85 58.7597 91.55C58.2797 91.238 57.9017 90.818 57.6257 90.29C57.3497 89.762 57.2117 89.168 57.2117 88.508V79.922C57.2117 79.658 57.2957 79.442 57.4637 79.274C57.6317 79.106 57.8477 79.022 58.1117 79.022C58.3757 79.022 58.5917 79.106 58.7597 79.274C58.9277 79.442 59.0117 79.658 59.0117 79.922V88.508C59.0117 88.988 59.1437 89.39 59.4077 89.714C59.6717 90.038 59.9957 90.2 60.3797 90.2H60.9917C61.2077 90.2 61.3877 90.284 61.5317 90.452C61.6877 90.62 61.7657 90.836 61.7657 91.1C61.7657 91.364 61.6637 91.58 61.4597 91.748C61.2677 91.916 61.0157 92 60.7037 92H60.3797ZM56.3837 84.062C56.1317 84.062 55.9277 83.99 55.7717 83.846C55.6157 83.702 55.5377 83.522 55.5377 83.306C55.5377 83.066 55.6157 82.874 55.7717 82.73C55.9277 82.586 56.1317 82.514 56.3837 82.514H60.5417C60.7937 82.514 60.9977 82.586 61.1537 82.73C61.3097 82.874 61.3877 83.066 61.3877 83.306C61.3877 83.522 61.3097 83.702 61.1537 83.846C60.9977 83.99 60.7937 84.062 60.5417 84.062H56.3837ZM67.6043 92.072C66.7643 92.072 65.9843 91.946 65.2643 91.694C64.5563 91.43 64.0043 91.1 63.6083 90.704C63.4283 90.512 63.3503 90.296 63.3743 90.056C63.4103 89.804 63.5303 89.6 63.7343 89.444C63.9743 89.252 64.2083 89.174 64.4363 89.21C64.6763 89.234 64.8803 89.336 65.0483 89.516C65.2523 89.744 65.5763 89.96 66.0203 90.164C66.4763 90.356 66.9803 90.452 67.5323 90.452C68.2283 90.452 68.7563 90.338 69.1163 90.11C69.4883 89.882 69.6803 89.588 69.6923 89.228C69.7043 88.868 69.5303 88.556 69.1703 88.292C68.8223 88.028 68.1803 87.812 67.2443 87.644C66.0323 87.404 65.1503 87.044 64.5983 86.564C64.0583 86.084 63.7883 85.496 63.7883 84.8C63.7883 84.188 63.9683 83.684 64.3283 83.288C64.6883 82.88 65.1503 82.58 65.7143 82.388C66.2783 82.184 66.8663 82.082 67.4783 82.082C68.2703 82.082 68.9723 82.208 69.5843 82.46C70.1963 82.712 70.6823 83.06 71.0423 83.504C71.2103 83.696 71.2883 83.9 71.2763 84.116C71.2643 84.32 71.1623 84.494 70.9703 84.638C70.7783 84.77 70.5503 84.812 70.2863 84.764C70.0223 84.716 69.8003 84.608 69.6203 84.44C69.3203 84.152 68.9963 83.954 68.6483 83.846C68.3003 83.738 67.8983 83.684 67.4423 83.684C66.9143 83.684 66.4643 83.774 66.0923 83.954C65.7323 84.134 65.5523 84.398 65.5523 84.746C65.5523 84.962 65.6063 85.16 65.7143 85.34C65.8343 85.508 66.0623 85.664 66.3983 85.808C66.7343 85.94 67.2263 86.072 67.8743 86.204C68.7743 86.384 69.4823 86.612 69.9983 86.888C70.5263 87.164 70.9043 87.488 71.1323 87.86C71.3603 88.22 71.4743 88.64 71.4743 89.12C71.4743 89.672 71.3243 90.17 71.0243 90.614C70.7363 91.058 70.3043 91.412 69.7283 91.676C69.1643 91.94 68.4563 92.072 67.6043 92.072Z" fill="black"/>
<path d="M28.3265 20.1864C31.4606 18.3772 36.5418 18.3774 39.6757 20.1868L59.2139 31.4672C62.3478 33.2765 62.3477 36.2099 59.2136 38.019L39.6746 49.298C36.5405 51.1071 31.4593 51.1069 28.3254 49.2975L8.78722 38.0171C5.65331 36.2078 5.65342 33.2744 8.78747 31.4653L28.3265 20.1864Z" fill="#E9C0FE"/>
<path d="M28.322 12.1889C31.4547 10.3806 36.5335 10.3808 39.666 12.1893L59.1953 23.4646C62.3278 25.2731 62.3277 28.2051 59.1951 30.0134L39.6649 41.2872C36.5323 43.0955 31.4534 43.0953 28.3209 41.2868L8.79163 30.0116C5.65915 28.203 5.65926 25.271 8.79188 23.4627L28.322 12.1889Z" fill="#D98BFF"/>
<path d="M28.3104 4.73507C31.4225 2.93861 36.4681 2.93881 39.58 4.7355L58.9814 15.9369C62.0933 17.7336 62.0932 20.6464 58.9811 22.4429L39.5789 33.6428C36.4668 35.4392 31.4213 35.439 28.3093 33.6423L8.90793 22.441C5.79597 20.6443 5.79608 17.7314 8.90817 15.935L28.3104 4.73507Z" fill="#BD42F9"/>
</svg>
